<svg width="18" height="18" viewBox="0 0 18 18" fill="none" xmlns="http://www.w3.org/2000/svg">
<rect x="0.75" y="0.75" width="16.5" height="16.5" fill="#454545"/>
<rect x="0.75" y="0.75" width="16.5" height="16.5" stroke="#454545" stroke-width="0.5"/>
<rect x="1" y="1" width="2.66667" height="2.66667" fill="black"/>
<rect x="1" y="4.33325" width="2.66667" height="2.66667" fill="#CD9BEC"/>
<rect x="1" y="7.66675" width="2.66667" height="2.66667" fill="#CD9BEC"/>
<rect x="1" y="11" width="2.66667" height="2.66667" fill="black"/>
<rect x="1" y="14.3333" width="2.66667" height="2.66667" fill="black"/>
<rect x="14.3333" y="1" width="2.66667" height="2.66667" fill="black"/>
<rect x="4.33334" y="1" width="2.66667" height="2.66667" fill="#CD9BEC"/>
<rect x="4.33334" y="4.33325" width="2.66667" height="2.66667" fill="black"/>
<rect x="4.33334" y="7.66675" width="2.66667" height="2.66667" fill="red"/>
<rect x="4.33334" y="11" width="2.66667" height="2.66667" fill="#CD9BEC"/>
<rect x="4.33334" y="14.3333" width="2.66667" height="2.66667" fill="#CD9BEC"/>
<rect x="7.66666" y="1" width="2.66667" height="2.66667" fill="#CD9BEC"/>
<rect x="7.66666" y="4.33325" width="2.66667" height="2.66667" fill="#CD9BEC"/>
<rect id="nose" x="7.66666" y="7.66675" width="2.66667" height="2.66667" fill="#CD9BEC"/>
<rect x="7.66666" y="11" width="2.66667" height="2.66667" fill="black"/>
<rect x="7.66666" y="14.3333" width="2.66667" height="2.66667" fill="#CD9BEC"/>
<rect x="14.3333" y="7.66675" width="2.66667" height="2.66667" fill="#CD9BEC"/>
<rect x="11" y="1" width="2.66667" height="2.66667" fill="#CD9BEC"/>
<rect x="11" y="4.33325" width="2.66667" height="2.66667" fill="black"/>
<rect x="11" y="7.66675" width="2.66667" height="2.66667" fill="red"/>
<rect x="11" y="11" width="2.66667" height="2.66667" fill="#CD9BEC"/>
<rect x="11" y="14.3333" width="2.66667" height="2.66667" fill="#CD9BEC"/>
<rect x="14.3333" y="4.33325" width="2.66667" height="2.66667" fill="#CD9BEC"/>
<rect x="14.3333" y="11" width="2.66667" height="2.66667" fill="black"/>
<rect x="14.3333" y="14.3333" width="2.66667" height="2.66667" fill="black"/>
</svg>
