<svg class="bingo-weapon-icon" width="24" height="24" viewBox="0 0 24 24" fill="none" xmlns="http://www.w3.org/2000/svg">
<rect width="4" height="4" fill="var(--bingo-weapon-icon-color, #040506)"/>
<rect y="4" width="4" height="4" fill="var(--bingo-weapon-icon-color, #040506)"/>
<rect x="20" y="8" width="4" height="4" fill="var(--bingo-weapon-icon-color, #040506)"/>
<rect x="20" y="11" width="4" height="4" fill="var(--bingo-weapon-icon-color, #040506)"/>
<rect x="20" width="4" height="4" fill="var(--bingo-weapon-icon-color, #040506)"/>
<rect x="16" y="2" width="4" height="4" fill="var(--bingo-weapon-icon-color, #040506)"/>
<rect x="4" y="2" width="4" height="4" fill="var(--bingo-weapon-icon-color, #040506)"/>
<rect x="20" y="4" width="4" height="4" fill="var(--bingo-weapon-icon-color, #040506)"/>
<rect x="6" y="4" width="4" height="4" fill="var(--bingo-weapon-icon-color, #040506)"/>
<rect x="10" width="4" height="4" fill="var(--bingo-weapon-icon-color, #040506)"/>
<rect x="10" y="13" width="4" height="4" fill="var(--bingo-weapon-icon-color, #040506)"/>
<rect x="10" y="9" width="4" height="4" fill="var(--bingo-weapon-icon-color, #040506)"/>
<rect x="10" y="8" width="4" height="4" fill="var(--bingo-weapon-icon-color, #040506)"/>
<rect x="7" y="10" width="4" height="4" fill="var(--bingo-weapon-icon-color, #040506)"/>
<rect x="13" y="10" width="4" height="4" fill="var(--bingo-weapon-icon-color, #040506)"/>
<rect x="10" y="4" width="4" height="4" fill="var(--bingo-weapon-icon-color, #040506)"/>
<rect x="14" y="4" width="4" height="4" fill="var(--bingo-weapon-icon-color, #040506)"/>
<rect y="8" width="4" height="4" fill="var(--bingo-weapon-icon-color, #040506)"/>
<rect x="14" y="18" width="4" height="4" fill="var(--bingo-weapon-icon-color, #040506)"/>
<rect y="11" width="4" height="4" fill="var(--bingo-weapon-icon-color, #040506)"/>
<rect x="2" y="15" width="4" height="4" fill="var(--bingo-weapon-icon-color, #040506)"/>
<rect y="2" width="4" height="4" fill="var(--bingo-weapon-icon-color, #040506)"/>
<rect x="20" y="2" width="4" height="4" fill="var(--bingo-weapon-icon-color, #040506)"/>
<rect x="18" y="15" width="4" height="4" fill="var(--bingo-weapon-icon-color, #040506)"/>
<rect x="6" y="18" width="4" height="4" fill="var(--bingo-weapon-icon-color, #040506)"/>
<rect x="10" y="20" width="4" height="4" fill="var(--bingo-weapon-icon-color, #040506)"/>
</svg>
