<svg class="bingo-weapon-icon" width="24" height="24" viewBox="0 0 24 24" fill="none" xmlns="http://www.w3.org/2000/svg">
<rect x="3" y="19" width="4" height="4" fill="var(--bingo-weapon-icon-color, #040506)"/>
<rect x="6" y="20" width="4" height="4" fill="var(--bingo-weapon-icon-color, #040506)"/>
<rect x="19" y="15" width="4" height="4" fill="var(--bingo-weapon-icon-color, #040506)"/>
<rect x="19" y="13" width="4" height="4" fill="var(--bingo-weapon-icon-color, #040506)"/>
<rect x="1" y="11" width="4" height="4" fill="var(--bingo-weapon-icon-color, #040506)"/>
<rect x="5" y="5" width="4" height="4" fill="var(--bingo-weapon-icon-color, #040506)"/>
<rect x="3" width="4" height="4" fill="var(--bingo-weapon-icon-color, #040506)"/>
<rect x="16" y="7" width="4" height="4" fill="var(--bingo-weapon-icon-color, #040506)"/>
<rect x="13" y="17" width="4" height="4" fill="var(--bingo-weapon-icon-color, #040506)"/>
<rect x="14" y="13" width="4" height="4" fill="var(--bingo-weapon-icon-color, #040506)"/>
<rect x="11" y="15" width="4" height="4" fill="var(--bingo-weapon-icon-color, #040506)"/>
<rect x="6" y="17" width="4" height="4" fill="var(--bingo-weapon-icon-color, #040506)"/>
<rect x="10" y="17" width="4" height="4" fill="var(--bingo-weapon-icon-color, #040506)"/>
<rect x="9" y="9" width="4" height="4" fill="var(--bingo-weapon-icon-color, #040506)"/>
<rect x="14" y="20" width="4" height="4" fill="var(--bingo-weapon-icon-color, #040506)"/>
<rect x="18" y="18" width="4" height="4" fill="var(--bingo-weapon-icon-color, #040506)"/>
<rect x="7" y="15" width="4" height="4" fill="var(--bingo-weapon-icon-color, #040506)"/>
<rect x="6" y="12" width="4" height="4" fill="var(--bingo-weapon-icon-color, #040506)"/>
<rect x="13" y="1" width="4" height="4" fill="var(--bingo-weapon-icon-color, #040506)"/>
<rect x="15" y="1" width="4" height="4" fill="var(--bingo-weapon-icon-color, #040506)"/>
<rect x="20" width="4" height="4" fill="var(--bingo-weapon-icon-color, #040506)"/>
<rect x="14" y="4" width="4" height="4" fill="var(--bingo-weapon-icon-color, #040506)"/>
<rect x="9" y="3" width="4" height="4" fill="var(--bingo-weapon-icon-color, #040506)"/>
<rect x="10" y="20" width="4" height="4" fill="var(--bingo-weapon-icon-color, #040506)"/>
<rect x="1" y="15" width="4" height="4" fill="var(--bingo-weapon-icon-color, #040506)"/>
<rect x="2" y="7" width="4" height="4" fill="var(--bingo-weapon-icon-color, #040506)"/>
<rect x="19" y="9" width="4" height="4" fill="var(--bingo-weapon-icon-color, #040506)"/>
</svg>
