<svg class="bingo-weapon-icon" width="24" height="24" viewBox="0 0 24 24" fill="none" xmlns="http://www.w3.org/2000/svg">
<rect x="14" y="2" width="4" height="4" fill="var(--bingo-weapon-icon-color, #040506)"/>
<rect x="12" width="4" height="4" fill="var(--bingo-weapon-icon-color, #040506)"/>
<rect x="20" y="7" width="4" height="4" fill="var(--bingo-weapon-icon-color, #040506)"/>
<rect x="4" y="16" width="4" height="4" fill="var(--bingo-weapon-icon-color, #040506)"/>
<rect x="16" y="10" width="4" height="4" fill="var(--bingo-weapon-icon-color, #040506)"/>
<rect x="18" y="6" width="4" height="4" fill="var(--bingo-weapon-icon-color, #040506)"/>
<rect x="8" y="7" width="4" height="4" fill="var(--bingo-weapon-icon-color, #040506)"/>
<rect x="19" y="12" width="4" height="4" fill="var(--bingo-weapon-icon-color, #040506)"/>
<rect x="9" y="9" width="4" height="4" fill="var(--bingo-weapon-icon-color, #040506)"/>
<rect x="6" y="6" width="4" height="4" fill="var(--bingo-weapon-icon-color, #040506)"/>
<rect x="11" y="11" width="4" height="4" fill="var(--bingo-weapon-icon-color, #040506)"/>
<rect x="13" y="12" width="4" height="4" fill="var(--bingo-weapon-icon-color, #040506)"/>
<rect x="14" y="14" width="4" height="4" fill="var(--bingo-weapon-icon-color, #040506)"/>
<rect x="7" y="1" width="4" height="4" fill="var(--bingo-weapon-icon-color, #040506)"/>
<rect x="10" y="4" width="4" height="4" fill="var(--bingo-weapon-icon-color, #040506)"/>
<rect x="16" y="4" width="4" height="4" fill="var(--bingo-weapon-icon-color, #040506)"/>
<rect x="8" y="12" width="4" height="4" fill="var(--bingo-weapon-icon-color, #040506)"/>
<rect y="20" width="4" height="4" fill="var(--bingo-weapon-icon-color, #040506)"/>
<rect x="9" y="11" width="4" height="4" fill="var(--bingo-weapon-icon-color, #040506)"/>
<rect x="17" y="3" width="4" height="4" fill="var(--bingo-weapon-icon-color, #040506)"/>
<rect x="20" width="4" height="4" fill="var(--bingo-weapon-icon-color, #040506)"/>
</svg>
