<svg class="bingo-weapon-icon" width="24" height="24" viewBox="0 0 24 24" fill="none" xmlns="http://www.w3.org/2000/svg">
<rect x="15" y="4" width="4" height="4" fill="var(--bingo-weapon-icon-color, #040506)"/>
<rect x="20" width="4" height="4" fill="var(--bingo-weapon-icon-color, #040506)"/>
<rect x="10" width="4" height="4" fill="var(--bingo-weapon-icon-color, #040506)"/>
<rect x="5" y="4" width="4" height="4" fill="var(--bingo-weapon-icon-color, #040506)"/>
<rect x="8" y="2" width="4" height="4" fill="var(--bingo-weapon-icon-color, #040506)"/>
<rect width="4" height="4" transform="matrix(-1 0 0 1 16 18)" fill="var(--bingo-weapon-icon-color, #040506)"/>
<rect x="13" y="2" width="4" height="4" fill="var(--bingo-weapon-icon-color, #040506)"/>
<rect width="4" height="4" transform="matrix(-1 0 0 1 11 18)" fill="var(--bingo-weapon-icon-color, #040506)"/>
<rect x="3" y="7" width="4" height="4" fill="var(--bingo-weapon-icon-color, #040506)"/>
<rect x="3" y="13" width="4" height="4" fill="var(--bingo-weapon-icon-color, #040506)"/>
<rect x="17" y="7" width="4" height="4" fill="var(--bingo-weapon-icon-color, #040506)"/>
<rect x="17" y="13" width="4" height="4" fill="var(--bingo-weapon-icon-color, #040506)"/>
<rect width="4" height="4" fill="var(--bingo-weapon-icon-color, #040506)"/>
<rect x="20" y="10" width="4" height="4" fill="var(--bingo-weapon-icon-color, #040506)"/>
<rect y="10" width="4" height="4" fill="var(--bingo-weapon-icon-color, #040506)"/>
<rect x="5" y="16" width="4" height="4" fill="var(--bingo-weapon-icon-color, #040506)"/>
<rect y="20" width="4" height="4" fill="var(--bingo-weapon-icon-color, #040506)"/>
<rect x="20" y="20" width="4" height="4" fill="var(--bingo-weapon-icon-color, #040506)"/>
<rect x="15" y="16" width="4" height="4" fill="var(--bingo-weapon-icon-color, #040506)"/>
<rect x="10" y="20" width="4" height="4" fill="var(--bingo-weapon-icon-color, #040506)"/>
<rect x="10" y="8" width="4" height="4" fill="var(--bingo-weapon-icon-color, #040506)"/>
<rect x="10" y="10" width="4" height="4" fill="var(--bingo-weapon-icon-color, #040506)"/>
<rect x="8" y="10" width="4" height="4" fill="var(--bingo-weapon-icon-color, #040506)"/>
<rect x="10" y="12" width="4" height="4" fill="var(--bingo-weapon-icon-color, #040506)"/>
<rect x="12" y="10" width="4" height="4" fill="var(--bingo-weapon-icon-color, #040506)"/>
</svg>
