<svg class="bingo-weapon-icon" width="24" height="24" viewBox="0 0 24 24" fill="none" xmlns="http://www.w3.org/2000/svg">
<rect x="8" y="6" width="4" height="4" fill="var(--bingo-weapon-icon-color, #040506)"/>
<rect x="10" y="10" width="4" height="4" fill="var(--bingo-weapon-icon-color, #040506)"/>
<rect x="20" y="8" width="4" height="4" fill="var(--bingo-weapon-icon-color, #040506)"/>
<rect x="16" y="4" width="4" height="4" fill="var(--bingo-weapon-icon-color, #040506)"/>
<rect x="12" width="4" height="4" fill="var(--bingo-weapon-icon-color, #040506)"/>
<rect x="16" width="4" height="4" fill="var(--bingo-weapon-icon-color, #040506)"/>
<rect x="20" width="4" height="4" fill="var(--bingo-weapon-icon-color, #040506)"/>
<rect x="4" y="4" width="4" height="4" fill="var(--bingo-weapon-icon-color, #040506)"/>
<rect x="16" y="20" width="4" height="4" fill="var(--bingo-weapon-icon-color, #040506)"/>
<rect y="20" width="4" height="4" fill="var(--bingo-weapon-icon-color, #040506)"/>
<rect y="4" width="4" height="4" fill="var(--bingo-weapon-icon-color, #040506)"/>
<rect x="5" y="12" width="4" height="4" fill="var(--bingo-weapon-icon-color, #040506)"/>
<rect x="1" y="8" width="4" height="4" fill="var(--bingo-weapon-icon-color, #040506)"/>
<rect x="8" y="15" width="4" height="4" fill="var(--bingo-weapon-icon-color, #040506)"/>
<rect x="12" y="19" width="4" height="4" fill="var(--bingo-weapon-icon-color, #040506)"/>
<rect x="4" y="16" width="4" height="4" fill="var(--bingo-weapon-icon-color, #040506)"/>
<rect x="16" y="16" width="4" height="4" fill="var(--bingo-weapon-icon-color, #040506)"/>
<rect x="14" y="12" width="4" height="4" fill="var(--bingo-weapon-icon-color, #040506)"/>
<rect x="20" y="4" width="4" height="4" fill="var(--bingo-weapon-icon-color, #040506)"/>
<rect x="12" y="8" width="4" height="4" fill="var(--bingo-weapon-icon-color, #040506)"/>
</svg>
