<svg width="1265" height="533" viewBox="0 0 1265 533" fill="none" xmlns="http://www.w3.org/2000/svg">
<path d="M158.885 118.888C160.982 125.645 160.22 135.327 160.389 141.817C161.079 168.33 161.342 194.838 160.915 221.356C160.432 251.309 161.824 281.507 160.464 311.42C159.772 326.648 158.173 341.618 155.502 356.603C154.737 360.897 154.639 362.666 155.502 357.054M277.968 116.182C282.952 125.652 282.424 137.907 283.418 148.245C287.598 191.712 288.885 235.471 290.523 279.094C291.343 300.948 291.5 322.82 291.5 344.687C291.5 351.61 291.353 358.552 291.538 365.474C291.692 371.273 292.43 365.939 292.853 363.82M30.3299 142.569C31.4591 142.428 28.6 141.945 27.0973 143.396C22.8934 147.455 23.7747 150.244 28.6008 153.357C37.0808 158.828 27.1952 170.018 26.2703 163.544M44.5384 165.574C41.0308 166.012 43.5076 157.407 43.8618 154.786C44.7136 148.483 46.5415 145.979 51.0038 141.517C57.6168 134.904 59.4238 177.633 59.4238 168.28M67.5433 156.778C63.4403 157.006 40.8211 163.521 41.8322 157.454M66.8667 137.833C62.4308 137.833 69.7712 141.625 71.227 141.892C74.4673 142.488 89.8713 144.202 89.8713 139.186M79.7222 139.186C79.7222 145.972 81.752 152.661 81.752 159.484C81.752 161.085 79.8029 171.502 81.752 167.604M183.243 143.246C183.739 138.78 180.637 143.434 179.206 145.579L179.183 145.614C174.277 152.973 173.799 155.241 180.236 160.687C182.149 162.306 189.145 171.686 184.484 173.317C179.553 175.043 172.364 176.214 176.477 169.633M196.775 149.335C193.95 153.573 196.242 182.926 201.512 168.581C203.209 163.96 205.473 158.692 205.571 153.695C205.61 151.732 204.461 150.324 205.571 148.658M214.367 170.31C214.133 172.412 214.398 159.717 214.668 157.906C214.78 157.148 216.205 141.581 219.141 144.223C222.088 146.876 222.462 152.18 223.163 155.801C223.349 156.76 225.253 170.69 227.072 168.807C231.715 163.998 233.451 152.409 233.989 145.952M299.62 156.101C298.231 157.644 296.316 163.204 295.71 157.605C295.234 153.195 298.245 142.308 302.476 149.786C310.27 163.561 304.863 141.496 310.971 138.66C315.963 136.342 315.237 156.124 314.505 158.808M330.744 141.893C329.955 142.439 329.246 142.976 328.608 143.519M328.608 143.519C325.288 146.347 323.898 149.339 323.226 154.598C322.572 159.711 327.882 162.589 331.42 158.357C333.761 155.557 334.519 149.384 332.623 146.103C331.716 144.534 329.622 144.231 328.608 143.519ZM328.608 143.519C328.258 143.274 328.037 142.98 328.037 142.569M343.599 158.808C342.258 155.455 344.997 137.54 346.982 138.284C350.831 139.727 351.795 150.37 353.41 153.959C355.3 158.158 359.97 140.936 358.485 136.48M424.792 135.803C420.092 138.568 428.452 136.809 429.679 136.63C436.726 135.602 444.433 134.669 451.18 132.42M436.971 133.773C442.416 134.983 437.082 170.966 442.384 163.544M455.239 137.156C455.239 141.61 458.791 165.995 463.02 162.416C470.884 155.762 462.619 141.648 467.418 134.45M477.567 131.743C476.224 133.255 476.952 136.214 476.816 138.096C476.477 142.749 472.539 154.268 475.237 158.507C477.539 162.125 483.338 156.778 487.04 156.778M473.508 133.097C477.455 132.864 486.347 133.559 489.07 131.743M505.308 141.893C496.518 141.893 483.814 138.541 476.891 144.599M589.884 129.713C590.084 135.323 591.975 141.082 593.267 146.478C594.155 150.185 595.596 160.243 597.665 151.966C598.725 147.726 600.47 132.886 604.469 143.471C605.185 145.367 610.784 159.958 610.784 152.267C610.784 147.34 609.787 142.241 608.453 137.532C608.326 137.082 606.425 132.233 608.152 133.096M622.362 131.067C621.616 133.397 620.999 136.187 621.159 138.622C621.302 140.803 622.071 156.275 624.166 157.417C630.193 160.704 643.788 153.619 644.69 147.305M623.715 142.569C629.279 140.769 634.554 138.673 639.953 136.48M616.948 131.067C620.832 133.891 632.388 127.407 635.893 125.654M650.102 131.744C649.117 140.615 651.159 149.955 652.959 158.808C653.766 162.777 659.814 156.403 661.342 154.974C671.191 145.76 664.497 126.092 649.426 131.744M770.538 129.037C766.973 130.715 795.343 129.253 794.896 128.36M777.981 156.101C778.507 160.31 779.936 150.769 779.936 150.313C779.936 146.71 776.419 136.082 778.657 133.097M790.837 156.778C797.278 152.989 792.466 138.885 793.543 132.42M790.16 147.305C792.452 145.014 795.129 146.921 798.054 146.328C802.328 145.462 806.574 143.835 810.458 141.893M807.752 129.037C809.574 131.315 807.184 139.341 807.752 142.644C808.142 144.919 808.811 156.203 809.782 154.748M822.637 129.037C813.732 130.026 816.171 151.954 822.712 152.681C828.673 153.343 833.865 145.028 835.117 140.201C836.038 136.648 831.793 131.542 833.463 129.037M921.422 124.301C922.928 123.297 925.948 138.977 926.158 140.164C926.668 143.04 929.515 162.835 926.835 159.484M920.069 127.007C920.793 133.523 937.476 127.721 941.043 127.007M921.422 141.893C926.783 141.127 932.521 140.223 937.66 138.51M950.516 131.743C949.634 134.29 949.221 136.875 949.114 139.478M949.114 139.478C949.024 141.684 949.154 143.903 949.406 146.122M949.114 139.478C948.365 140.786 947.843 142.162 947.622 143.509C946.915 147.801 951.82 160.381 951.042 156.101C950.487 153.048 949.883 149.959 949.495 146.868M949.114 139.478C952.267 133.972 959.451 129.665 965.251 133.773C972.748 139.083 951.842 145.376 949.463 146.103C949.443 146.109 949.424 146.115 949.406 146.122M949.406 146.122C949.434 146.371 949.464 146.619 949.495 146.868M949.406 146.122C949.029 146.262 949.102 146.525 949.495 146.868M949.495 146.868C951.428 148.555 961.087 152.182 962.695 152.718M978.257 121.594C978.257 132.272 978.166 149.538 984.346 158.808M42.292 372.221C42.292 379.045 37.2918 402.731 48.1403 402.881C67.593 403.151 87.1325 401.584 106.566 400.724C117.051 400.26 127.277 398.631 137.794 399.049C146.746 399.404 155.637 399.705 164.594 399.815C174.062 399.931 183.363 402.103 192.813 402.342C201.234 402.555 209.691 400.794 218.079 401.462C226.75 402.152 235.154 404.676 243.914 404.045C251.243 403.518 258.312 401.49 265.547 400.44C270.996 399.649 274.455 401.143 273.382 394.705C272.679 390.488 271.489 386.446 270.969 382.185C270.613 379.265 271.057 375.588 269.18 373.243M148.582 396.238C147.747 404.593 150.579 412.375 152.642 420.454C153.154 422.462 151.812 429.106 152.159 429.453M261.515 448.872C265.377 447.795 273.269 446.317 273.269 446.317M280.934 444.273C273.747 445.071 253.515 453.128 259.982 449.894M7.32521 134.45C12.9904 136.716 10.7948 149.94 11.2345 154.372C12.8994 171.154 15.663 187.54 16.2715 204.441C16.9682 223.794 17.4096 243.13 18.3013 262.479C19.165 281.223 22.237 299.842 22.8496 318.525C23.0425 324.409 19.0359 344.188 24.6915 348.559C31.1484 353.548 42.7922 354.67 50.4777 355.701C74.2027 358.882 98.186 359.642 122.048 361.113C184.319 364.954 247.207 362.245 309.355 357.43C377.809 352.125 446.289 357.73 514.781 357.73C579.289 357.73 643.668 350.603 708.178 352.693C729.101 353.371 751.339 358.145 772.117 354.648C779.375 353.426 787.997 351.338 788.957 342.695C790.35 330.16 787.202 316.552 785.574 304.128C782.394 279.868 778.704 255.629 775.726 231.355C771.118 193.806 764.813 155.655 762.081 117.948C761.886 115.255 762.648 108.292 759.299 106.747C750.784 102.816 736.325 104.711 727.461 104.679C703.135 104.591 679.021 104.659 654.688 105.506C620.365 106.701 585.89 105.626 551.618 107.799C513.26 110.232 475.175 113.749 436.708 114.114C405.287 114.412 373.985 114.504 342.584 115.843C275.424 118.708 208.577 127.651 141.293 125.504C102.245 124.257 62.2085 125.241 23.3007 129.037C16.106 129.739 9.06125 132.42 1.91235 132.42M413.966 109.415C411.379 109.703 422.43 270.726 422.762 286.235C423.191 306.302 421.993 326.887 423.777 346.867C424.392 353.759 424.883 364.533 426.822 350.964M573.646 102.649C574.153 103.856 574.331 105.033 574.472 106.333C576.813 127.893 578.703 149.519 580.412 171.137C583.283 207.475 582.8 243.592 582.892 279.996C582.949 302.063 583.34 324.372 589.245 345.777C590.249 349.415 593.883 361.222 594.62 351.641M713.027 104.002C731.794 102.96 752.403 104.557 771.29 106.446C798.473 109.164 825.242 109.492 852.521 110.054C889.775 110.822 928.099 112.104 965.213 109.453C972.02 108.967 981.014 110.015 987.729 110.618C1002.05 111.903 1016.71 111.002 1031.11 111.971C1039.6 112.543 1048.11 110.816 1056.59 111.445C1062.53 111.885 1060.14 146.345 1060.13 149.861C1059.89 194.873 1059.88 240.171 1061.52 285.183C1062.06 300.154 1064.79 314.825 1065.5 329.801C1065.77 335.351 1068.5 345.801 1061.44 347.919C1053.88 350.187 1045.14 348.934 1037.35 348.934C1016.33 348.934 995.353 349.739 974.347 350.137C932.027 350.939 889.423 348.605 847.22 352.468C812.609 355.636 778.008 357.054 743.474 357.054M903.83 106.709C908.19 104.914 912.62 175.425 913.039 181.437C914.001 195.219 917.377 208.736 917.888 222.559C918.579 241.19 915.442 259.753 916.159 278.417C916.569 289.063 917.814 299.687 918.001 310.33C918.165 319.674 916.338 329.486 917.701 338.748C918.255 342.52 919.23 359.069 913.979 352.318M147.56 428.432C147.402 427.959 147.121 427.683 146.741 427.573M146.741 427.573C146.294 427.443 145.71 427.542 145.028 427.818M146.741 427.573C154.294 426.706 161.164 428.86 166.723 435.87C173.218 444.059 170.728 460.4 160.96 464.713C150.821 469.19 143.602 466.429 136.091 458.78L136.066 458.755C131.619 454.226 125.915 448.417 129.987 441.69C130.995 440.024 140.328 429.721 145.028 427.818M146.741 427.573C146.174 427.638 145.603 427.72 145.028 427.818M145.028 427.818C142.526 428.247 139.956 428.984 137.34 429.965M142.45 443.762C145.08 442.155 146.574 439.248 148.752 437.176C149.722 436.254 148.599 441.837 148.582 442.74C148.545 444.704 148.529 458.261 147.56 452.449M140.406 453.471C146.862 451.906 166.979 453.471 160.335 453.471M185.375 432.52C179.982 433.119 185.126 451.737 186.851 453.925C194.378 463.475 199.058 442.001 196.106 436.097M205.815 438.652C205.815 443.593 203.778 450.052 205.418 454.607C206.995 458.989 206.738 451.553 207.052 443.944M207.052 443.944C207.223 439.81 207.562 435.626 208.455 433.258C211.321 425.664 217.108 432.403 216.49 437.658C216.125 440.755 209.492 445.69 207.052 443.944ZM207.052 443.944C206.976 443.89 206.905 443.829 206.837 443.762M228.3 433.031C225.356 438.754 225.376 443.987 223.984 450.15C223.63 451.72 220.187 458.418 221.259 459.49C224.296 462.526 232.992 456.862 234.432 453.982M249.251 436.608C246.393 439.298 236.622 447.659 239.769 452.137C242.132 455.5 247.372 454.162 249.989 451.881C252.43 449.754 254.722 446.175 254.021 442.768C253.602 440.736 249.762 438.642 249.762 437.63M259.471 456.537C261.637 452.687 265.848 430.441 269.975 437.516C272.559 441.946 271.53 447.702 273.268 452.421C273.789 453.833 275.641 458.215 273.779 454.493M286.044 436.608V461.647M286.044 432.52C292.537 429.551 303.97 434.018 301.828 442.371C300.098 449.118 291.704 455.287 287.066 458.07M327.436 430.476C324.632 432.678 321.313 433.563 319.032 436.551C317.227 438.917 321.81 441.266 323.12 442.853C324.832 444.929 329.099 449.297 328.458 452.364C327.435 457.252 320.193 461.086 316.704 459.092M337.656 436.097C337.486 437.964 336.21 439.305 336.265 441.264C336.381 445.466 339.337 459.537 346.314 453.868C351.847 449.374 350.029 442.413 351.964 436.608M365.761 434.053C363.418 439.45 363.296 444.122 363.235 450.064C363.234 450.113 363.72 460.115 362.695 459.603M360.14 458.07C360.14 463.934 387.152 455.089 382.738 449.61C380.273 446.55 363.794 449.314 364.058 449.269C367.829 448.631 387.031 445.569 379.275 439.276C375.449 436.173 359.813 436.608 364.739 436.608M389.268 454.493C389.383 450.45 393.156 430.626 395.513 433.769C396.995 435.745 399.74 450.03 401.93 444.273C402.331 443.216 404.714 432.745 406.245 434.393C409.491 437.889 408.175 449.091 408.175 453.982M421.461 433.542C421.461 441.414 420.122 449.213 419.02 456.991C418.841 458.254 417.737 463.694 418.906 459.603M442.413 435.075C437.142 430.331 429.76 439.578 435.827 444.245C438.279 446.131 443.19 448.888 440.653 452.875C439.351 454.921 432.065 462.797 430.149 459.603M464.897 428.432C461.578 429.419 459.137 431.283 456.835 433.882C451.455 439.957 451.42 441.581 457.857 445.494C468.649 452.054 455.689 456.404 449.056 460.625M475.118 434.053C475.994 442.815 473.974 451.039 472.052 459.603M494.025 438.141C493.67 438.495 493.3 438.84 492.928 439.184M492.928 439.184C492.351 439.716 491.772 440.246 491.243 440.809C488.212 444.036 484.022 456.337 492.889 451.257C497.536 448.595 496.121 442.761 492.928 439.184ZM492.928 439.184C491.897 438.03 490.682 437.11 489.426 436.608M502.201 453.982C503.017 451.226 504.644 434.032 506.8 435.188C510.286 437.059 510.13 450.433 510.661 453.925C511.481 459.316 512.887 457.034 513.983 453.131C516.044 445.788 517.613 438.345 519.575 430.987M542.06 422.3C539.322 425.19 537.292 428.836 535.246 432.207C531.107 439.028 532.367 439.093 537.915 443.506C546.973 450.712 534.103 456.526 528.773 460.625M295.592 99.981C295.69 95.7494 295.373 71.2719 302.164 70.7059C317.205 69.4525 333.167 72.2276 348.504 71.2486C377.433 69.4021 406.625 69.3463 435.485 66.8769C463.632 64.4687 491.609 60.8573 519.723 58.1939C579.442 52.5363 639.023 54.6776 698.871 55.993C706.557 56.1619 716.642 57.8971 724.106 56.2643C728.12 55.3862 728.396 62.7083 729.202 66.3342C729.785 68.9578 737.143 89.4552 729.744 83.7003M365.056 31.6022C368.065 30.1862 370.379 28.924 373.559 27.2607C384.887 21.3348 377.45 34.2393 374.131 38.2954C372.836 39.8785 366.813 46.335 369.941 46.2548C373.381 46.1666 386.56 48.12 383.508 43.5414M375.91 14.7787C362.426 19.1817 345.378 28.0354 353.117 44.5061C358.389 55.725 369.721 66.7116 382.513 60.5155C394.251 54.8297 404.786 47.0835 398.462 33.2302C393.682 22.7608 383.752 13.6934 371.569 13.6934M379.166 59.2795C376.087 59.2795 379.648 68.0372 379.98 69.8319C382.05 81.0101 379.474 65.0144 378.624 64.1638M415.527 20.2058C413.888 22.0263 416.419 24.2117 416.642 26.4769C417.217 32.3179 416.871 41.2035 420.682 46.2851C423.473 50.0066 425.202 44.1057 426.079 41.9134C428.017 37.0691 429.455 31.989 431.596 27.2306C432.253 25.7717 435.063 21.3783 435.063 20.7485M447.545 32.145C447.036 30.1056 442.453 34.2289 442.209 35.1298C440.525 41.3405 441.253 49.6886 447.787 43.0591C453.876 36.8797 450.152 33.3436 447.545 27.2607M462.74 14.2361C467.503 20.4271 464.331 30.9389 463.223 37.6321C462.522 41.864 460.622 46.1594 463.826 40.2852M458.942 28.3461C461.547 33.2669 473.595 29.9912 473.595 26.1753M481.192 31.0594C477.809 34.8407 486.859 29.581 487.825 27.6826C492.658 18.1842 480.514 24.8693 478.961 28.4665C475.572 36.3159 485.033 45.0846 489.875 35.4009M520.808 21.8337C512.364 21.8337 510.294 42.2751 524.155 32.6573C526.234 31.2146 530.487 27.1095 528.708 24.3059C527.221 21.9634 523.448 22.6231 522.979 20.7483M531.662 35.401C535.164 34.8173 537.001 25.9655 538.235 23.4015C539.804 20.1403 542.185 31.0979 543.3 32.7479C548.358 40.2343 551.586 20.8274 552.285 18.0349M565.309 18.5776C567.119 23.4649 571.316 27.7394 574.535 31.6022M585.389 14.2361C581.996 23.016 578.004 31.3702 572.666 39.1999C570.375 42.5588 572.039 39.5972 572.907 37.5718M596.785 20.7485C593.87 21.8696 591.636 24.3729 590.936 27.4417C588.842 36.6226 593.769 35.924 599.167 30.9993C603.951 26.6345 605.172 20.2058 597.87 20.2058M611.438 16.9496C611.438 24.0984 615.328 36.5541 622.985 27.8034C626.635 23.6323 625.144 19.2464 626.633 14.7788M639.115 17.4921C637.653 19.1368 640.2 38.7222 640.2 25.9038C640.2 19.7238 646.191 7.8848 653.677 14.5073C658.528 18.7981 642.747 24.8922 640.683 27.0194C640.06 27.6611 648.746 28.2238 649.697 28.3761C651.872 28.724 658.564 31.2491 658.109 29.4313M686.329 33.773C693.625 28.8121 685.235 9.28075 691.093 8.38713C695.167 7.76559 699.112 8.33548 703.153 7.18115M679.817 27.8033C684.129 24.7095 699.678 24.6588 700.982 20.7483M704.781 35.9438C704.88 35.1499 707.006 33.7282 707.524 33.17C709.692 30.8358 717.587 14.7278 719.976 15.9848C722.586 17.3586 724.067 30.5169 722.689 30.5169M704.781 26.7178C711.683 28.6714 719.024 25.197 725.403 22.9189M728.116 17.4923C734.02 15.0613 737.695 39.1408 739.513 34.4966C741.875 28.4605 741.303 20.2342 744.94 14.7788M765.019 16.4067C764.618 16.6392 764.228 16.9013 763.849 17.1889M763.849 17.1889C760.083 20.0477 757.418 25.4274 755.432 29.3106C752.619 34.8093 760.502 33.6488 763.241 31.6925C768.08 28.2356 771.794 22.6814 765.924 18.2458C765.1 17.6231 764.383 17.433 763.849 17.1889ZM763.849 17.1889C763.223 16.9025 762.849 16.5417 762.849 15.3213M782.928 21.8336C782.913 21.8169 782.898 21.8002 782.883 21.7835M782.883 21.7835C782.1 20.8942 781.843 20.0765 781.843 18.9091C781.843 17.2681 782.164 19.2795 782.883 21.7835ZM782.883 21.7835C783.574 24.1896 784.632 27.0506 786.124 27.562C799.332 32.0905 792.175 16.9451 797.581 15.864M808.977 16.9495C810.178 18.451 809.826 22.2296 809.942 24.0045C810.542 33.2074 811.144 24.7267 812.082 20.8991C813.587 14.7661 816.167 10.4373 822.544 10.4373M833.941 10.98C834.062 13.149 834.461 15.2141 834.514 17.432C834.562 19.4306 834.574 30.88 835.569 28.8888M845.338 5.01033C849.367 10.6061 864.258 4.09984 869.216 2.29688M855.106 4.46753C855.287 12.2681 857.819 19.8952 857.819 27.8032M876.271 9.35205C874.701 13.8857 868.235 31.9619 874.401 32.8686C878.701 33.501 883.498 28.5371 886.039 25.6328M872.472 12.0652C877.678 8.66157 884.163 6.93495 889.838 4.46753M889.838 12.0655C892.235 12.0655 893.654 11.5267 890.562 12.97C884.62 15.7426 879.66 20.4709 874.643 24.5474M902.863 8.80925C902.581 7.82294 899.392 10.4669 899.064 10.98C896.528 14.942 900.819 20.9508 900.692 25.2106C900.604 28.1469 892.867 37.1686 894.723 31.6023M803.55 374.04C802.496 364.551 803.464 393.135 803.55 402.682C803.556 403.361 802.947 407.632 804.093 407.687C809.251 407.932 814.402 405.599 819.409 404.672C837.921 401.244 857.373 401.158 876.15 400.21C898.858 399.063 921.406 395.891 944.137 394.662C961.917 393.701 979.759 392.325 997.562 391.979C1008.96 391.758 1022.06 394.677 1033.17 392.733C1038.51 391.799 1045.49 392.568 1047.46 386.492C1049.51 380.147 1053.56 367.354 1048.3 362.101M776.715 426.681C776.137 427.452 778.19 427.695 778.705 427.736C783.604 428.128 788.091 428.185 791.006 433.073C793.887 437.902 780.159 436.325 786.062 439.042C788.597 440.209 797.165 444.667 793.539 448.389C792.258 449.703 783.77 457.16 783.77 453.815M789.197 423.425C779.616 421.17 765.829 425.275 763.269 436.027C761.597 443.047 767.177 462.62 774.454 465.091C780.938 467.293 788.344 463.536 793.78 460.328C801.407 455.826 807.922 448.788 805.207 439.434C802.861 431.356 797.915 426.221 789.74 425.053M803.665 410.48C801.813 409.889 793.713 425.793 795.281 425.075M816.332 425.596C822.503 425.596 830.441 428.671 836.411 426.681M826.643 424.51C823.668 428.229 826.772 440.457 827.185 444.59M848.351 430.48C847.064 426.621 841.436 435.606 840.059 439.434C839.625 440.642 835.585 448.6 839.667 448.388C842.675 448.233 845.655 445.627 847.687 443.625C851.165 440.2 852.204 435.181 849.948 430.811C848.797 428.58 843.094 426.851 844.009 427.766M862.46 428.852C860.387 430.925 860.223 433.373 860.078 436.269C859.984 438.166 860.233 451.841 859.475 443.504C859.203 440.509 857.479 420.843 865.053 422.581C867.959 423.248 873.932 430.189 870.239 432.651C868.787 433.618 857.241 438.55 862.46 434.821M897.193 423.425C896.603 426.375 894.7 429.383 893.997 432.47C893.771 433.461 891.223 446.344 891.223 442.962M911.845 422.339C911.486 422.698 910.934 423.245 910.263 423.932M910.263 423.932C905.909 428.381 896.534 438.683 902.197 441.514C906.927 443.879 913.135 439.077 915.795 435.334C918.271 431.848 916.965 427.989 914.016 425.294C913.318 424.657 911.751 424.221 910.263 423.932ZM910.263 423.932C908.309 423.552 906.492 423.425 906.961 423.425M934.095 419.083C929.303 423.397 927.063 428.189 925.232 434.64C922.918 442.792 932.864 439.012 936.085 435.726C940.313 431.413 941.823 427.251 938.437 421.797C937.048 419.56 934.487 417.802 931.925 419.083M816.874 485.292C816.874 485.352 817.536 482.609 817.99 481.674C818.995 479.6 822.676 464.093 824.05 464.368C830.943 465.747 833.698 490.151 833.698 483.121M818.502 471.724C822.398 470.478 827.414 470.639 831.527 470.639M839.125 483.663C839.03 484.233 838.587 481.654 838.582 481.372C838.531 478.227 839.764 475.25 843.104 478.357C852.168 486.788 846.883 472.042 849.436 466.297M865.174 467.926C863.865 468.022 862.829 468.528 862.049 469.273M862.049 469.273C857.966 473.164 860.865 483.57 868.34 476.096C870.61 473.826 865.325 471.277 862.049 469.273ZM862.049 469.273C860.887 468.562 859.977 467.92 859.747 467.383M876.57 465.755C878.807 462.298 887.522 462.943 891.223 462.499M885.253 464.126C885.504 470.88 886.286 477.344 885.796 484.206M899.363 461.956C899.225 465.7 897.603 484.475 898.821 483.663M911.845 459.785C914.549 466.943 914.559 490.229 914.559 482.578M895.022 474.438C891.463 478.219 911.435 472.876 912.388 473.352M920.528 459.242C920.528 464.308 921.723 469.4 922.187 474.498C922.301 475.754 922.102 481.432 923.845 481.432C927.848 481.432 932.953 478.837 935.724 476.066M919.443 471.182C924.006 470.392 927.958 469.107 931.925 466.84M945.492 457.072C944.521 457.186 943.898 458.079 943.521 459.438M943.521 459.438C943.05 461.132 942.961 463.549 943.056 466.084M943.521 459.438C943.211 461.534 943.075 463.833 943.056 466.084M943.521 459.438C944.279 454.298 946.074 450.373 949.713 451.343C955.398 452.859 954.857 463.883 950.075 466.056C946.884 467.507 945.739 468.219 949.08 470.247C951.946 471.987 955.083 473.402 957.612 475.644C957.804 475.814 959.059 477.83 959.059 477.151M943.056 466.084C943.293 472.407 944.674 479.461 944.135 477.845C943.597 476.23 943.012 471.284 943.056 466.084ZM935.724 450.017C935.091 456.979 924.479 460.561 918.9 461.956M979.682 453.815C979.58 452.901 978.755 451.468 979.41 453.303C979.833 454.486 980.165 455.754 980.429 457.074M980.429 457.074C981.361 461.713 981.463 466.975 981.762 471.302C982.095 476.129 980.815 463.381 980.429 457.074ZM980.429 457.074C980.392 456.462 980.363 455.912 980.345 455.443C980.196 451.631 981.233 439.931 987.762 443.625C995.351 447.919 990.479 459.085 985.169 462.438C981.537 464.732 985.191 464.371 987.882 465.031C992.03 466.049 994.898 468.01 995.962 472.267M1008.44 448.931C1007.76 450.23 1006.97 451.344 1006.22 452.453M1006.22 452.453C1005.08 454.12 1004 455.776 1003.44 458.037C1001.7 465.013 1003.24 473.758 1011.76 467.081C1016.46 463.397 1011.36 453.767 1006.22 452.453ZM1006.22 452.453C1004.92 452.121 1003.62 452.318 1002.47 453.273M1019.84 453.273C1016.25 457.266 1024.69 470.173 1027.14 467.534C1032 462.284 1030.02 454.368 1028.53 448.397L1028.52 448.389M1041.01 466.297C1040.13 464.539 1039.92 463.261 1039.92 461.293C1039.92 456.591 1038.87 449.382 1043.57 455.293C1055.05 469.744 1045.37 450.662 1050.23 444.59M1061.09 469.554C1061.39 467.881 1062.11 467.095 1062.11 465.389M1062.11 465.389C1062.12 465.175 1062.1 464.946 1062.08 464.7C1061.85 462.402 1056.65 442.722 1057.38 442.479C1060.82 441.332 1067.92 444.151 1070.58 446.037C1074.34 448.697 1081.14 457.077 1075.56 460.991C1071.57 463.788 1066.74 464.377 1062.11 465.389ZM1062.11 465.389C1061.59 465.504 1061.06 465.625 1060.54 465.755M821.759 502.115C821.595 503.51 820.222 504.533 818.95 505.61M818.95 505.61C818.13 506.304 817.352 507.021 816.965 507.874C815.538 511.02 810.006 523.299 813.317 526.295C815.454 528.229 819.942 523.777 821.065 522.466C824.6 518.342 825.484 514.011 822.844 509.291C822.322 508.357 820.286 505.69 818.95 505.61ZM818.95 505.61C818.525 505.585 818.172 505.821 817.96 506.457M840.753 495.603C832.863 495.603 838.039 519.868 838.039 526.536M829.356 514.597C836.446 514.006 843.898 509.95 850.521 507.542M874.4 506.999C874.745 510.797 883.659 519.444 883.746 519.059C884.617 515.186 880.63 500.063 887.424 501.572M906.418 504.828C901.745 502.024 898.099 507.056 895.806 510.496C888.762 521.062 900.871 513.579 905.031 510.617C911.776 505.814 908.393 499.944 900.991 499.944M921.071 495.603C916.228 493.893 922.641 515.439 922.699 515.682M915.644 506.457C920.696 504.961 925.769 503.548 930.839 502.115M935.181 493.975C933.663 499.134 935.808 504.567 936.809 509.713M947.12 510.256C947.483 508.894 948.828 498.54 949.502 498.708C952.265 499.399 953.61 505.835 957.371 503.954C960.554 502.363 957.56 496.155 959.602 493.432M975.34 495.06C974.527 486.927 951.626 512.007 968.285 505.793C969.268 505.427 975.559 502.324 978.581 499.065M978.581 499.065C980.326 497.184 980.981 495.252 978.898 493.764C978.141 493.223 978.596 495.607 978.596 496.537C978.596 497.378 978.587 498.221 978.581 499.065ZM978.581 499.065C978.567 500.988 978.567 502.915 978.717 504.828C979.264 511.824 980.148 518.796 980.707 525.782C981.251 532.589 978.357 532.346 973.712 529.249M1182.27 191.212C1182.36 192.666 1183.41 193.614 1184.62 194.252C1187.63 195.832 1191.86 199.494 1195.41 200.474M1195.41 200.474C1195.43 200.48 1195.45 200.486 1195.48 200.492M1195.41 200.474C1195.43 200.574 1195.45 200.668 1195.47 200.755M1195.41 200.474C1195.36 200.236 1195.28 199.96 1195.18 199.65C1193.93 195.809 1193.8 192.569 1191.47 189.061C1186.97 182.275 1180.76 175.889 1173.57 171.938C1163.62 166.473 1153.58 168.95 1145.66 176.736C1138.12 184.145 1135.18 191.929 1133.17 202.297C1132.49 205.785 1131.68 209.696 1132.13 213.258C1132.34 215.02 1132.42 215.957 1132.42 213.548M1195.48 200.492C1195.76 200.567 1196.03 200.625 1196.31 200.663C1196.87 200.743 1197.32 188.417 1196.7 187.304C1195.88 185.832 1195.79 197.716 1195.58 199.443C1195.52 199.859 1195.49 200.208 1195.48 200.492ZM1195.48 200.492C1195.47 200.587 1195.47 200.674 1195.47 200.755M1195.47 200.755C1195.44 201.813 1195.64 201.692 1195.47 200.755ZM1132 234.24C1132 235.663 1132.06 231.391 1132.21 229.975C1132.28 229.277 1132.14 222.992 1133.56 223.516C1135.06 224.067 1136.32 225.037 1137.61 225.973M1137.61 225.973C1138.8 226.831 1140.02 227.661 1141.49 228.112C1142.24 228.345 1146.76 230.378 1145.79 229.727C1145.01 229.203 1140.61 227.074 1137.61 225.973ZM1137.61 225.973C1136.2 225.454 1135.09 225.163 1134.82 225.38C1134.13 225.931 1141.75 239.146 1142.29 239.829C1150.22 249.874 1167.43 255.671 1179.18 249.393C1187.72 244.833 1197.32 234.685 1200.14 225.152C1201.44 220.755 1201.21 217.233 1199.81 213M1102 71.7613C1103.31 70.7457 1103.25 73.8414 1103.39 74.535C1104.88 82.2252 1107.64 91.1886 1111.95 97.7501C1115.74 103.524 1116.9 85.46 1118.16 83.4593C1119.09 81.9763 1125.58 97.0393 1127.81 93.1071C1129.93 89.3541 1130.54 78.2124 1128.05 74.4747M1138.36 66.8771C1138.36 64.7911 1138.9 69.6483 1138.9 69.8921C1138.94 74.6628 1136.28 89.7606 1139.45 92.9263M1147.59 91.2981C1148.98 85.391 1149.16 67.7243 1151.17 73.4496C1153.03 78.745 1153.83 85.7241 1157.47 90.2128C1161.99 95.7797 1160.83 65.4221 1164.41 64.7063M1169.29 87.4993C1169.29 81.8937 1170.92 76.2163 1172.45 70.8713L1172.49 70.7362C1173.63 66.7542 1174.36 67.8744 1176.08 70.7965C1178.83 75.4591 1180.32 80.8629 1182.47 85.8109C1186.62 95.3521 1186.59 86.096 1187.17 79.9619C1187.6 75.5151 1186.72 68.1361 1189.37 64.1636M1198.06 62.5356C1199.1 64.7336 1199.06 66.7141 1199.32 69.1082C1199.75 72.9105 1199.96 93.4705 1203.72 94.9765C1208.54 96.9011 1217.55 88.4292 1219.76 85.3287M1195.89 79.9015C1201.95 77.3592 1207.5 73.8476 1213.25 70.6758M1221.93 63.0784C1223.19 69.7066 1227.07 75.2745 1229.62 81.4395C1230.8 84.2772 1229.54 79.5016 1228.58 74.5042M1228.58 74.5042C1228.43 73.733 1228.29 72.9566 1228.17 72.2021M1228.58 74.5042C1228.31 74.3983 1228.04 74.2883 1227.78 74.1734C1226.54 73.6259 1227.1 72.8883 1228.17 72.2021M1228.58 74.5042C1232 75.8574 1235.96 76.5274 1239.42 77.7914C1241.53 78.5619 1245.63 80.6726 1243.64 77.1884M1228.17 72.2021C1227.86 70.3062 1227.66 68.5484 1227.72 67.3596C1228.04 61.8193 1228.96 53.8406 1233.99 50.295C1239.04 46.7446 1240.93 54.3753 1240.39 58.0736C1239.63 63.2076 1236.33 67.7043 1231.97 70.3445C1231.6 70.5745 1229.49 71.3486 1228.17 72.2021ZM1196.97 60.3649C1205.02 60.3649 1212.42 54.6596 1219.22 51.1392M1121.54 114.634C1117.92 113.109 1115.06 117.398 1113.16 119.88C1108.77 125.615 1101.66 134.796 1108.24 141.377C1113.71 146.842 1122.38 136.978 1125.34 132.543M1135.65 137.427C1141.46 130.967 1132.49 119.142 1136.01 111.921C1137.84 108.169 1149.16 111 1148.55 115.056C1148.2 117.419 1137.88 124.609 1138.84 125.729C1141.27 128.545 1147.04 131.661 1147.04 135.799M1157.9 117.347C1157.61 114.76 1153.55 119.551 1153.53 120.875C1153.48 124.043 1154.61 133.208 1159.07 132.995C1161.36 132.886 1164.53 132.211 1165.74 130.04C1167.72 126.467 1170.38 118.132 1167 114.755C1164.41 112.159 1161.69 116.262 1158.98 116.262M1175.26 113.549C1169.44 118.005 1182.36 136.38 1187.93 128.442C1189.26 126.543 1189.91 117.28 1191.54 121.689C1193.53 127.053 1198.38 127.106 1199.68 121.026C1200.19 118.668 1199.45 107.791 1200.77 108.122M1207.82 131.457C1207.82 128.651 1208.79 115.207 1211.2 114.755C1213.96 114.237 1216.99 126.88 1217.89 128.684C1220.06 133.015 1221.8 124.035 1221.9 122.744C1222.49 115.416 1223.07 108.333 1224.11 101.067M1107.8 303.763C1107.8 296.849 1107.51 288.824 1109 282.176C1109.23 281.159 1118.07 293.422 1118.74 294.386C1119.21 295.056 1126.06 304.903 1126.55 302.436C1127.56 297.37 1125.55 290.065 1124.08 285.13C1122.54 279.963 1121.9 279.342 1126.79 279.342M1140.36 280.427C1135.33 280.986 1138.18 303.41 1139.82 305.27C1141.6 307.3 1150.39 297.53 1151.75 296.165M1136.56 282.598C1137.8 280.677 1139.55 281.309 1141.47 280.728C1145.21 279.6 1148.47 277.052 1151.75 275M1154.47 282.598C1150.4 283.676 1135.44 293.415 1136.02 293.994M1160.44 280.97C1157.32 283.354 1156.78 284.329 1157.85 288.507C1158.53 291.178 1160.21 304.265 1163.15 297.642C1164.05 295.627 1165.76 281.812 1168.28 285.552C1181.66 305.45 1177.63 277.535 1180.52 278.256M1103.46 322.214C1102.37 323.179 1100.5 323.992 1104.15 323.481C1110.65 322.57 1118.94 318.671 1123.53 314.074M1128.42 318.958C1125.48 325.57 1128.42 347.901 1128.42 340.666M1115.94 348.806C1115.85 346.424 1115.61 344.117 1115.55 341.721C1115.34 334.474 1110.52 313.559 1113.77 320.043M1125.16 330.897C1129.53 332.646 1138.3 330.237 1141.44 327.098M1140.9 317.873C1139.9 317.123 1140.72 322.201 1140.78 322.757C1141.41 328.889 1141.99 347.372 1141.99 341.208M1151.21 318.416C1148.06 321.879 1147.18 339.72 1153.44 338.676C1157.93 337.928 1163.89 333.008 1165.32 328.727M1143.61 331.44C1146.53 328.722 1160.98 324.706 1160.98 322.214M1145.79 322.214C1146.21 314.559 1158.54 314.342 1163.15 309.732M1173.46 335.781C1173.46 331.467 1172.76 313.107 1175.75 312.807C1177.49 312.634 1181.13 326.042 1181.87 323.963C1182.54 322.108 1182.93 306.371 1185.97 308.466C1190.78 311.772 1191.55 323.289 1191.91 328.711L1191.91 328.726M1198.97 309.19C1199.14 313.188 1198.37 327.004 1202.5 328.003C1205.74 328.787 1211.09 322.524 1213.08 320.044M1193.54 320.044C1198.66 316.204 1204.39 313.162 1209.28 309.19M1210.91 295.08C1205.89 297.72 1201.5 301.711 1196.8 304.848M1117.57 366.715C1117.44 368.897 1117.02 370.937 1117.02 373.167C1117.02 373.713 1117.04 375.006 1117.06 376.591M1117.06 376.591C1117.13 382.312 1117.24 391.849 1116.6 383.96C1116.52 382.912 1116.66 379.915 1117.06 376.591ZM1117.06 376.591C1117.9 369.565 1119.84 361.076 1123.02 366.443C1123.9 367.916 1126.73 371.086 1126.01 372.926C1125.08 375.273 1121.53 376.092 1121 378.322C1120.66 379.784 1130.79 387.091 1131.68 386.794M1137.64 362.916C1137.64 362.872 1137.48 365.568 1137.4 366.112C1137.01 368.891 1134.03 381.233 1137.7 382.151C1142.43 383.334 1148.54 377.743 1151.21 374.313M1128.96 367.257C1131.66 360.512 1143.83 358.9 1149.04 353.69M1153.93 361.831C1150.91 362.629 1148.8 364.098 1146.27 365.991C1145.23 366.766 1135.78 373.274 1138.73 372.684M1160.98 358.032C1157.22 358.408 1160.01 363.837 1160.68 365.63C1161.26 367.183 1166.03 383.018 1166.83 374.976C1167.51 368.197 1163.51 359.184 1168.04 353.148M1178.35 356.404C1177.86 354.704 1176.71 360.02 1176.72 360.203C1176.81 363.38 1176.86 377.165 1179.85 378.775C1183.57 380.777 1190.99 372.487 1193 369.971M1174.55 367.257C1177.46 365.026 1188.12 361.543 1188.12 358.032M1171.29 357.489C1174.49 354.358 1186.07 351.694 1187.03 348.806M1196.8 371.599C1197.12 364.493 1197.85 350.64 1202.77 345.248C1204.52 343.334 1207.23 350.874 1207.35 351.52C1208.14 355.769 1211.95 372.692 1205.48 373.77M1193.54 363.459C1199.44 360.212 1204.6 355.128 1209.82 350.977M1214.71 340.666C1220.47 338.104 1214.38 366.373 1217.51 368.524C1221.6 371.333 1229.61 361.358 1230.45 358.032M1233.16 336.324C1233 339.142 1232.3 341.734 1232.31 344.645C1232.33 348.482 1231 358.414 1233.79 362.042C1236.96 366.165 1246.13 356.104 1246.73 353.148M1229.9 353.148C1234.94 350.494 1239.38 347.289 1244.01 343.922M1223.93 336.324C1229.35 334.97 1235.83 333.677 1239.13 328.727M1254.53 356.768C1251.14 348.667 1250.73 340.644 1249.09 332.218C1248.74 330.422 1248.77 328.48 1248.25 326.727C1247.84 325.351 1247.65 324.932 1249.2 324.932C1253.02 324.932 1256.63 325.681 1259.02 329.156C1262.88 334.773 1264.84 343.277 1261.66 349.641C1260.41 352.138 1257.79 356.314 1255.01 357.243" stroke="#F7F7F8" stroke-width="3" stroke-linecap="round"/>
</svg>
