<svg width="24" height="24" viewBox="0 0 24 24" fill="none" xmlns="http://www.w3.org/2000/svg">
<g id="IconGeoFire">
<path id="vertex" d="M7.2 9.60039C7.2 9.60039 3.00036 7.64918 3 7.9999V15.9999C3.00036 16.3506 3.09294 16.6951 3.26846 16.9987M7.2 9.60039L12 11.9999M7.2 9.60039L12 2.00195L16.8 9.6008M3.26846 16.9987C3.44398 17.3024 3.69626 17.5545 4 17.7299L11 21.7299C11.304 21.9054 11.6489 21.9979 12 21.9979C12.3511 21.9979 12.696 21.9054 13 21.7299L20 17.7299C20.3037 17.5545 20.556 17.3024 20.7315 16.9987C20.9071 16.6951 20.9996 16.3506 21 15.9999V8.00031C20.9996 7.64959 16.8 9.6008 16.8 9.6008M3.26846 16.9987L12 11.9999M12 11.9999L16.8 9.6008" stroke="#E1E6EA" stroke-width="1.2" stroke-linecap="round" stroke-linejoin="round"/>
<path id="surface-1" d="M3.26831 16.9986C3.44383 17.3023 3.69611 17.5544 3.99985 17.7298L10.9998 21.7298C11.3039 21.9053 11.6488 21.9977 11.9998 21.9977C12.3509 21.9977 12.6958 21.9053 12.9998 21.7298L19.9998 17.7298C20.3036 17.5544 20.5559 17.3023 20.7314 16.9986C20.9069 16.695 20.9995 16.3505 20.9999 15.9998V8.0002C20.9995 7.64947 16.7998 9.60069 16.7998 9.60069L11.9998 11.9998L3.26831 16.9986Z" stroke="#E1E6EA" stroke-width="1.2" stroke-linecap="round" stroke-linejoin="round"/>
<path id="surface-2" d="M7.2 9.59971C7.2 9.59971 3.00036 7.6485 3 7.99922V15.9992C3.00036 16.3499 3.09294 16.6944 3.26846 16.9981L12 11.9992L7.2 9.59971Z" stroke="#E1E6EA" stroke-width="1.2" stroke-linecap="round" stroke-linejoin="round"/>
<path id="surface-3" d="M7.19995 9.60039L12 11.9999L16.8 9.6008L12 2.00195L7.19995 9.60039Z" stroke="#E1E6EA" stroke-width="1.2" stroke-linecap="round" stroke-linejoin="round"/>
</g>
</svg>
