<svg width="12" height="13" viewBox="0 0 12 13" fill="none" xmlns="http://www.w3.org/2000/svg">
<path fill-rule="evenodd" clip-rule="evenodd" d="M3.08326 2.13478C3.94662 1.55791 4.96165 1.25 6 1.25C7.39191 1.25157 8.72635 1.8052 9.71058 2.78942C10.6948 3.77365 11.2484 5.10809 11.25 6.5C11.25 7.53835 10.9421 8.55339 10.3652 9.41674C9.78834 10.2801 8.9684 10.953 8.00909 11.3504C7.04978 11.7477 5.99418 11.8517 4.97578 11.6491C3.95738 11.4466 3.02192 10.9465 2.28769 10.2123C1.55347 9.47808 1.05345 8.54262 0.85088 7.52422C0.648307 6.50582 0.752275 5.45022 1.14963 4.49091C1.54699 3.5316 2.2199 2.71166 3.08326 2.13478ZM8.43911 8.54046C8.78931 8.88598 8.98973 9.35527 8.99719 9.84718C9.67723 9.23996 10.1568 8.4405 10.3724 7.55467C10.588 6.66885 10.5294 5.73843 10.2045 4.88662C9.8795 4.03482 9.30348 3.3018 8.55268 2.78464C7.80187 2.26747 6.91169 1.99056 6 1.99056C5.08832 1.99056 4.19814 2.26747 3.44733 2.78464C2.69652 3.3018 2.12051 4.03482 1.79555 4.88662C1.4706 5.73843 1.41204 6.66885 1.62763 7.55467C1.84321 8.4405 2.32278 9.23996 3.00281 9.84718C3.01027 9.35527 3.2107 8.88598 3.5609 8.54046C3.9111 8.19493 4.38304 8.00084 4.875 8H7.125C7.61697 8.00084 8.0889 8.19493 8.43911 8.54046ZM4.95831 3.81599C5.26665 3.60997 5.62916 3.5 6 3.5C6.49728 3.5 6.9742 3.69754 7.32583 4.04917C7.67746 4.40081 7.875 4.87772 7.875 5.375C7.875 5.74584 7.76503 6.10835 7.55901 6.41669C7.35298 6.72504 7.06014 6.96536 6.71753 7.10727C6.37492 7.24919 5.99792 7.28632 5.63421 7.21397C5.27049 7.14163 4.9364 6.96305 4.67418 6.70083C4.41195 6.4386 4.23338 6.10451 4.16103 5.74079C4.08868 5.37708 4.12581 5.00008 4.26773 4.65747C4.40964 4.31486 4.64996 4.02202 4.95831 3.81599Z" fill="#B5B5B5"/>
</svg>
