<svg xmlns="http://www.w3.org/2000/svg" width="157.26" height="31.24" viewBox="0 0 157.26 31.24"><path d="M109.76,14.18h-.26a14.18,14.18,0,0,0,0-1.44l-.08-1.18a1.3,1.3,0,0,0,.4-1,12.33,12.33,0,0,0-.57-3.5l0-.26a1.16,1.16,0,0,0,.16-1.19l-.54-1.41a1.59,1.59,0,0,0-1-1,1.5,1.5,0,0,0-2.4-.63,1.53,1.53,0,0,0-1.41,0,1.47,1.47,0,0,0-2.41.2,1.64,1.64,0,0,0-.87.17,1.65,1.65,0,0,0-.64-.2c-.16-.35-.34-.69-.52-1a1.46,1.46,0,0,0-2.5-.05,1.6,1.6,0,0,0-2.4,1.24l0,.22-.09,0A1.68,1.68,0,0,0,92.2,4,2.07,2.07,0,0,0,92,5.09a1.64,1.64,0,0,0,.12.46c0,1,0,2.07-.06,3.11A110.66,110.66,0,0,0,92.42,26a1.62,1.62,0,0,0,.3.83,3.08,3.08,0,0,0,2,3,1.51,1.51,0,0,0,1.9-1.45c0-.2,0-.4,0-.6a1.6,1.6,0,0,0,.15-.59,86.47,86.47,0,0,0,.05-9.66c.58.12,1.17.22,1.76.29a59.91,59.91,0,0,0,8,.73,1.3,1.3,0,0,0,1.42-1.1c.73-.09,1.46-.18,2.19-.3C111.92,16.85,111.33,14.31,109.76,14.18Zm-8.27.61h0c-1.17,0-2.33-.07-3.5-.17l-.77-.09-.44-.07a.86.86,0,0,0-.22,0c-.09-1.11-.2-2.21-.34-3.31l.1-1.8a1.68,1.68,0,0,0,1-1.24,1.39,1.39,0,0,0,1.35-.71,1.68,1.68,0,0,0,1.7.52l0,0a1.52,1.52,0,0,0,2.47-.57l.22-.08a1.45,1.45,0,0,0,2.21-.17,1.7,1.7,0,0,0,.59.06,1.48,1.48,0,0,0,.27.16l.24,3.64c0,.83.11,1.66.16,2.49l0,.5v.16A29.09,29.09,0,0,0,101.49,14.79Z"/><path d="M24,16.54,20.7,16.4c.28-1.15.61-2.29,1-3.42a1.69,1.69,0,0,0,.69-2,1.49,1.49,0,0,0-1.23-1.68A14.82,14.82,0,0,1,19,5a1.61,1.61,0,0,0-2.64-.58L16.1,4a1.52,1.52,0,0,0-2.74.36c-.06.18-.11.37-.17.55l-.4-1.1a1.52,1.52,0,0,0-2.74-.36c-.56,1-1.12,1.94-1.67,2.91L7.66,7.56c-.09.15-.24.36-.39.58H7.12C7,7.77,6.83,7.39,6.69,7L5.56,4c-.49-1.3-2.51-1.54-2.89,0a19.59,19.59,0,0,0-.39,2,1.41,1.41,0,0,0-1.52,0A1.51,1.51,0,0,0,.22,8,6.33,6.33,0,0,1,1.4,11.78c.06,1.43.08,2.85.09,4.28a1.55,1.55,0,0,0,0,2,39.79,39.79,0,0,1-1,9.09A1.51,1.51,0,0,0,1.91,29c1.87-.11,3.73-.25,5.59-.41.73.14,1.47.27,2.2.38A37.36,37.36,0,0,0,19,29.2a1.82,1.82,0,0,0,2.25.85l1.57-.68a1.16,1.16,0,0,0,.63-.71,1.51,1.51,0,0,0,1-1.05c.05-.21.06-.43.09-.64.89-.88.74-2.34.79-3.54L25.54,18A1.52,1.52,0,0,0,24,16.54ZM17.73,16a38.61,38.61,0,0,0-12.59-.67c0-.51,0-1-.08-1.52S5,13,5,12.65l6.3-.24a14,14,0,0,0,2.23-.09h.08l.4-.05a1.19,1.19,0,0,0,.62-.28c1,0,2,0,2.95.06.39.1.77.2,1.14.32C18.35,13.54,18,14.74,17.73,16Zm4.46,4.43a1.53,1.53,0,0,0-1,1.76c.1.55.17,1.1.22,1.65-.08.21-.17.42-.26.63a1,1,0,0,0-.55-.26A60.86,60.86,0,0,0,6.28,23.8c-.25,0-.5-.06-.75-.08,0-.41,0-.79,0-.94-.08-1.34-.15-2.68-.22-4l17,.71C22.26,19.77,22.23,20.08,22.19,20.39ZM10.84,8.05,11,7.7l.13.36Z"/><path d="M44,7.66a9.43,9.43,0,0,0-.34-2.38,1.62,1.62,0,0,0-.25-.72,10,10,0,0,0-.64-1.42A1.52,1.52,0,0,0,40,3.5L40,3.75a1.43,1.43,0,0,0-1.4,1.46c.18,3.79.37,7.59.55,11.38.1,2.1.18,4.22.46,6.31a59.07,59.07,0,0,1-6.38-.13,1.23,1.23,0,0,0-1,.43H32c0-.14,0-.28,0-.42a1.11,1.11,0,0,0,0-.51c0-1.57-.14-3.14-.27-4.71-.18-2.34-.37-4.69-.56-7a1.45,1.45,0,0,0,.69-.56,1.63,1.63,0,0,0,.58-2L32,6.66a10.43,10.43,0,0,0-.32-1.22,1.61,1.61,0,0,0-.52-.76l-.32-.75a1.35,1.35,0,0,0-2.05-.46c0-.1-.07-.2-.1-.29A1.5,1.5,0,0,0,25.75,4l.14.86a1.27,1.27,0,0,0,.4.77,32.83,32.83,0,0,1,.85,3.24,1.14,1.14,0,0,0,.13.3,1.23,1.23,0,0,0-.17.44,30,30,0,0,0,.59,14.56l0,.36a1.39,1.39,0,0,0,.15,1.57,1.67,1.67,0,0,0,.36.52.34.34,0,0,1,0,.1,1.54,1.54,0,0,0,1.5,1.5,35.8,35.8,0,0,0,9.7-.06c.85,0,1.7,0,2.54.08a1.45,1.45,0,0,0,1.3-.77A1.5,1.5,0,0,0,45,26c-.25-5.9-.62-11.79-1.06-17.68A1.54,1.54,0,0,0,44,7.66Z"/><path d="M61.41,22.59l0,0c-1-1-2-2-3-3,1.3.1,2.61.15,3.92.15a1.51,1.51,0,0,0,.53-.1l1.45.19c1.76.24,2.64-2.2,1.07-2.81V6.21a1.61,1.61,0,0,0-2.07-1.43l-.21-.45a1.4,1.4,0,0,0-2.14-.41l0-.09a1.52,1.52,0,0,0-2.9,0l-.32.89c-.11-.19-.21-.38-.33-.57a1.56,1.56,0,0,0-1.79-.63,1.48,1.48,0,0,0-2.69.35l-.09.37A1.4,1.4,0,0,0,51.48,4c-.08-.18-.15-.36-.24-.53a1.34,1.34,0,0,0-1.54-.68,1.54,1.54,0,0,0-1.85,2.17,2.91,2.91,0,0,1,.31,1,1.75,1.75,0,0,0,0,.73c.25,1.46.44,2.93.61,4.4a51.34,51.34,0,0,0,.43,17.61c.34,1.68,2.63,1.23,2.9-.23A1.37,1.37,0,0,0,54,27.05l-.24-4.67A71.86,71.86,0,0,0,62.39,28a1.7,1.7,0,0,0,.53.19c.45.34.9.66,1.34,1a1.57,1.57,0,0,0,.36.19,1.2,1.2,0,0,0,1.42-.3,1.41,1.41,0,0,0,.74-2.43A30.48,30.48,0,0,0,61.41,22.59ZM59.6,8.15c.12.22.22.44.34.66a1.44,1.44,0,0,0,2.3.27l.1.06V16l-3,0a31,31,0,0,0-5.85-.41l-.09,0-.29-5.43a1.31,1.31,0,0,0,1.28-.34A1.49,1.49,0,0,0,56.5,9V9l.1.22c.56,1.31,2.36.71,2.74-.36Z"/><path d="M87.87,8.77V8.64a1.28,1.28,0,0,0,.35-1.43,6,6,0,0,1-.33-1.55,1.49,1.49,0,0,0-.63-1.15l0,0a1.44,1.44,0,0,0-1.9-1,1.34,1.34,0,0,0-1-.23,1.49,1.49,0,0,0-2.54,1.36A136,136,0,0,1,84,23.07Q82.41,21,81,18.89c-1.53-3.59-2.87-7.27-5-10.56a7,7,0,0,0-.38-3.55A1.55,1.55,0,0,0,74.1,3.72a1.5,1.5,0,0,0-.65-.45A1.46,1.46,0,0,0,71,3a1.48,1.48,0,0,0-1.72,1.84,15.37,15.37,0,0,1,.38,1.66A1.33,1.33,0,0,0,69.5,7c-.06,3.82-.13,7.64-.16,11.46,0,3.06-.65,7,1.35,9.59.83,1.09,2.83.88,2.79-.75,0-.28,0-.55,0-.83a.66.66,0,0,0,0-.2c0-.64,0-1.28-.06-1.92,0-1.49-.08-3-.13-4.47q-.06-3.81,0-7.62a96.84,96.84,0,0,0,7.81,14.5,1.53,1.53,0,0,0,.53.49,1.4,1.4,0,0,0,.1.16,1.71,1.71,0,0,0,2.06.49c.2.15.42.28.63.42l.16.2a1.27,1.27,0,0,0,.88.44,1.52,1.52,0,0,0,2-1.41v-.28a1.57,1.57,0,0,0,.29-.85c0-.52,0-1,0-1.56A1.39,1.39,0,0,0,89,23.44c-.14-4.86-.53-9.71-1.13-14.54C87.86,8.86,87.87,8.82,87.87,8.77Z"/><path d="M132.31,8.77a1.34,1.34,0,0,0-.06-1.34,3.08,3.08,0,0,0-.49-.53l0-.66a1.53,1.53,0,0,0-1.5-1.5,1.35,1.35,0,0,0-.29,0c-.18-.59-.36-1.17-.49-1.69a1.51,1.51,0,0,0-2.74-.35,5,5,0,0,0-.45,1.54,3.25,3.25,0,0,0-.4-.15A1.51,1.51,0,0,0,124,5.58c0,.08,0,.15,0,.22a33.84,33.84,0,0,1-1.67-3.15,1.52,1.52,0,0,0-2.36-.31l-2.1,2.31a9.55,9.55,0,0,0-1.94-2.88,1.51,1.51,0,0,0-2.56,1.06l.12,5.49a1.5,1.5,0,0,0,.08.47,2.23,2.23,0,0,0,0,.27c0,1.54-.08,3.07-.08,4.61a44,44,0,0,0-.25,4.59,46.75,46.75,0,0,0,1,9.58c.34,1.63,3.12,1.3,2.94-.4h0a1.6,1.6,0,0,0,1-1.33c.38-2.85.75-5.72.91-8.59l6.31-.25,1.06-.06c0,1,.07,2,.1,3.06,0,1.26,0,2.52.13,3.78a1.55,1.55,0,0,0,1.6,1.45c0,.47,0,1,.07,1.42a1.5,1.5,0,0,0,3,0l.78-11.21a2.28,2.28,0,0,0,.13-.53,28.32,28.32,0,0,0,0-4.32A1.58,1.58,0,0,0,132.31,8.77ZM123.09,10a1.52,1.52,0,0,0,2.59,0c.06-.09.1-.18.16-.27l.21,0a8.75,8.75,0,0,0,.14,2.23l0,1.3q-3.58-.12-7.17-.33a33.28,33.28,0,0,0-.32-3.58,26.74,26.74,0,0,1,3.9,0C122.8,9.57,122.94,9.79,123.09,10Zm-2.46-4,0,0h-.06Z"/><path d="M156.23,23.15c0-.53-.12-1.07-.16-1.61-.06-.72-.1-1.45-.13-2.18a7.89,7.89,0,0,0,.24-5,.88.88,0,0,0,0-.17,1.44,1.44,0,0,0,.25-2.27c-.23-.19-.47-.36-.7-.54-.15-.72-.31-1.43-.52-2.13a1.39,1.39,0,0,0-.73-.87c-.16-1.08-.35-2.15-.58-3.22-.3-1.49-2.22-1.3-2.8-.17-.27-.86-.55-1.72-.83-2.58-.42-1.32-2.57-1.53-2.89,0-.1.48-.23.94-.37,1.39-.38-.9-.74-1.81-1.07-2.73-.44-1.25-2.63-1.59-2.89,0-.08.46-.15.93-.23,1.4l-.11-.19a1.46,1.46,0,0,0-1.79-.6,1.55,1.55,0,0,0-1.83.47,1.44,1.44,0,0,0-2.09,1,5,5,0,0,0-.44,2.9c0,1.47,0,2.94,0,4.41q.13,9.54,1.13,19a1.64,1.64,0,0,0,2.51,1.18,1.57,1.57,0,0,0,1.06.53,22,22,0,0,0,11.11-2l.76-.07a1.41,1.41,0,0,0,1.44-1.29l.31-.22A3.48,3.48,0,0,0,156,26l.15,0C157.76,25.65,157.46,23.61,156.23,23.15ZM146.38,25l-1.07.23a1.24,1.24,0,0,0-1,.85,21.22,21.22,0,0,1-2.45.92c.24-3.17-.35-6.47-.44-9.6-.05-1.88-.06-3.76,0-5.64,0-.5,0-1,.07-1.49a1.51,1.51,0,0,0,1-1.36l.08-1.1c1.64,1,3.38,1.8,5.12,2.67,2,1,4.17,2.26,5.31,4.23,0,.6,0,1.21,0,1.79,0,.74,0,1.48,0,2.21a11.35,11.35,0,0,1-2.26,3A20.29,20.29,0,0,1,146.38,25Zm6.9-1.46-.13,0a.8.8,0,0,0,.13-.13Z"/></svg>